<svg width="28" height="28" viewBox="0 0 28 28" fill="none" xmlns="http://www.w3.org/2000/svg">
<path d="M10.8776 2.73635C11.8869 2.45655 12.9367 2.31158 14 2.31158C16.8357 2.31158 19.5747 3.34247 21.7067 5.21218C23.8387 7.0819 25.2183 9.66291 25.5885 12.4744C25.9586 15.2858 25.294 18.1359 23.7186 20.4937C22.3581 22.5299 20.3985 24.0789 18.1251 24.9363C17.5278 25.1616 17.1591 25.79 17.3244 26.4066C17.4896 27.0231 18.1255 27.3936 18.7264 27.1781C21.5405 26.1689 23.9684 24.2806 25.6406 21.778C27.5276 18.9539 28.3236 15.5401 27.8803 12.1726C27.4369 8.80518 25.7845 5.71372 23.2309 3.47424C20.6772 1.23477 17.3966 0 14 0C12.477 0 10.9772 0.248293 9.55577 0.724136C10.118 1.29912 10.5702 1.98145 10.8776 2.73635Z" fill="black"/>
<path d="M0.731958 9.53245C0.444807 10.3852 0.238774 11.269 0.119807 12.1726C-0.323529 15.5401 0.472455 18.9539 2.35946 21.778C4.03164 24.2806 6.45952 26.1689 9.27367 27.1781C9.87453 27.3936 10.5105 27.0231 10.6757 26.4066C10.8409 25.79 10.4722 25.1616 9.87496 24.9363C7.60159 24.0789 5.64196 22.5298 4.28147 20.4937C2.70604 18.1359 2.04148 15.2858 2.41162 12.4744C2.4842 11.923 2.5956 11.3806 2.74389 10.8506C1.99002 10.5435 1.30757 10.0932 0.731958 9.53245Z" fill="black"/>
<path d="M0.84375 5.05783C0.84375 7.42033 2.76875 9.31033 5.09625 9.31033C7.42375 9.31033 9.33125 7.42033 9.33125 5.05783C9.33125 2.74783 7.42375 0.840332 5.09625 0.840332C2.76875 0.840332 0.84375 2.74783 0.84375 5.05783Z" fill="black"/>
</svg>
